{
  "accessors": [
    {
      "bufferView": 2,
      "componentType": 5126,
      "count": 24,
      "max": [
        1.0,
        1.0,
        1.0
      ],
      "min": [
        -1.0,
        -1.0,
        -1.0
      ],
      "type": "VEC3"
    },
    {
      "bufferView": 2,
      "byteOffset": 288,
      "componentType": 5126,
      "count": 24,
      "max": [
        1.0,
        1.0,
        1.0
      ],
      "min": [
        -1.0,
        -1.0,
        -1.0
      ],
      "type": "VEC3"
    },
    {
      "bufferView": 1,
      "componentType": 5126,
      "count": 24,
      "max": [
        0.7499567270278931,
        0.9999133944511414
      ],
      "min": [
        8.658754813950509e-05,
        8.660554885864258e-05
      ],
      "type": "VEC2"
    },
    {
      "bufferView": 0,
      "componentType": 5125,
      "count": 36,
      "type": "SCALAR"
    },
    {
      "bufferView": 2,
      "byteOffset": 576,
      "componentType": 5126,
      "count": 65532,
      "max": [
        2.725551128387451,
        1.0435466766357422,
        2.142529249191284
      ],
      "min": [
        -2.5892598628997803,
        -1.7290925979614258,
        -1.9196498394012451
      ],
      "type": "VEC3"
    },
    {
      "bufferView": 2,
      "byteOffset": 786960,
      "componentType": 5126,
      "count": 65532,
      "max": [
        0.999524712562561,
        0.9999849200248718,
        0.9997890591621399
      ],
      "min": [
        -0.9998549818992615,
        -0.9999952912330627,
        -0.9999914169311523
      ],
      "type": "VEC3"
    },
    {
      "bufferView": 1,
      "byteOffset": 192,
      "componentType": 5126,
      "count": 65532,
      "max": [
        0.999701976776123,
        0.9987930059432983
      ],
      "min": [
        0.00027600000612437725,
        0.00026702880859375
      ],
      "type": "VEC2"
    },
    {
      "bufferView": 0,
      "byteOffset": 144,
      "componentType": 5125,
      "count": 270582,
      "type": "SCALAR"
    },
    {
      "bufferView": 2,
      "byteOffset": 1573344,
      "componentType": 5126,
      "count": 65532,
      "max": [
        2.684004306793213,
        1.0883731842041016,
        2.147163152694702
      ],
      "min": [
        -2.5749456882476807,
        -1.7290925979614258,
        -1.9196498394012451
      ],
      "type": "VEC3"
    },
    {
      "bufferView": 2,
      "byteOffset": 2359728,
      "componentType": 5126,
      "count": 65532,
      "max": [
        0.9999947547912598,
        0.9999843239784241,
        0.9999813437461853
      ],
      "min": [
        -0.9998618960380554,
        -0.9999944567680359,
        -0.9999642372131348
      ],
      "type": "VEC3"
    },
    {
      "bufferView": 1,
      "byteOffset": 524448,
      "componentType": 5126,
      "count": 65532,
      "max": [
        0.9996500015258789,
        0.9996079802513123
      ],
      "min": [
        0.00025599999935366213,
        0.00026297569274902344
      ],
      "type": "VEC2"
    },
    {
      "bufferView": 0,
      "byteOffset": 1082472,
      "componentType": 5125,
      "count": 234345,
      "type": "SCALAR"
    },
    {
      "bufferView": 2,
      "byteOffset": 3146112,
      "componentType": 5126,
      "count": 65532,
      "max": [
        2.7233781814575195,
        1.0895404815673828,
        2.149775266647339
      ],
      "min": [
        -2.5604467391967773,
        -1.7006425857543945,
        -1.9176138639450073
      ],
      "type": "VEC3"
    },
    {
      "bufferView": 2,
      "byteOffset": 3932496,
      "componentType": 5126,
      "count": 65532,
      "max": [
        0.9999338984489441,
        0.9999576210975647,
        0.999990701675415
      ],
      "min": [
        -0.9998618960380554,
        -0.9999880194664001,
        -0.9999873638153076
      ],
      "type": "VEC3"
    },
    {
      "bufferView": 1,
      "byteOffset": 1048704,
      "componentType": 5126,
      "count": 65532,
      "max": [
        0.9997460246086121,
        0.9996089935302734
      ],
      "min": [
        0.00025400001322850585,
        0.0002740025520324707
      ],
      "type": "VEC2"
    },
    {
      "bufferView": 0,
      "byteOffset": 2019852,
      "componentType": 5125,
      "count": 204792,
      "type": "SCALAR"
    },
    {
      "bufferView": 2,
      "byteOffset": 4718880,
      "componentType": 5126,
      "count": 65532,
      "max": [
        2.709989309310913,
        1.0568866729736328,
        2.1389272212982178
      ],
      "min": [
        -2.58900785446167,
        -1.7225408554077148,
        -1.9182958602905273
      ],
      "type": "VEC3"
    },
    {
      "bufferView": 2,
      "byteOffset": 5505264,
      "componentType": 5126,
      "count": 65532,
      "max": [
        0.9999952912330627,
        0.9999815821647644,
        0.9998974204063416
      ],
      "min": [
        -0.9999544620513916,
        -0.9999867081642151,
        -0.9999726414680481
      ],
      "type": "VEC3"
    },
    {
      "bufferView": 1,
      "byteOffset": 1572960,
      "componentType": 5126,
      "count": 65532,
      "max": [
        0.9997259974479675,
        0.9996190071105957
      ],
      "min": [
        0.00025400001322850585,
        0.0002549886703491211
      ],
      "type": "VEC2"
    },
    {
      "bufferView": 0,
      "byteOffset": 2839020,
      "componentType": 5125,
      "count": 165348,
      "type": "SCALAR"
    },
    {
      "bufferView": 2,
      "byteOffset": 6291648,
      "componentType": 5126,
      "count": 65532,
      "max": [
        2.737276315689087,
        1.101572036743164,
        2.109931230545044
      ],
      "min": [
        -2.570359706878662,
        -1.703953742980957,
        -1.9594838619232178
      ],
      "type": "VEC3"
    },
    {
      "bufferView": 2,
      "byteOffset": 7078032,
      "componentType": 5126,
      "count": 65532,
      "max": [
        0.9999952912330627,
        0.9999815821647644,
        0.9999765753746033
      ],
      "min": [
        -0.999967098236084,
        -0.9999944567680359,
        -0.9999914169311523
      ],
      "type": "VEC3"
    },
    {
      "bufferView": 1,
      "byteOffset": 2097216,
      "componentType": 5126,
      "count": 65532,
      "max": [
        0.9997349977493286,
        0.99959397315979
      ],
      "min": [
        0.00025499999173916876,
        0.0002620220184326172
      ],
      "type": "VEC2"
    },
    {
      "bufferView": 0,
      "byteOffset": 3500412,
      "componentType": 5125,
      "count": 112203,
      "type": "SCALAR"
    },
    {
      "bufferView": 2,
      "byteOffset": 7864416,
      "componentType": 5126,
      "count": 65532,
      "max": [
        2.730330228805542,
        1.0956859588623047,
        1.985836148262024
      ],
      "min": [
        -2.666515827178955,
        -1.4962272644042969,
        -1.9542689323425293
      ],
      "type": "VEC3"
    },
    {
      "bufferView": 2,
      "byteOffset": 8650800,
      "componentType": 5126,
      "count": 65532,
      "max": [
        0.9999926090240479,
        0.9999977946281433,
        0.9999984502792358
      ],
      "min": [
        -0.9999544620513916,
        -0.9999952912330627,
        -0.9999873638153076
      ],
      "type": "VEC3"
    },
    {
      "bufferView": 1,
      "byteOffset": 2621472,
      "componentType": 5126,
      "count": 65532,
      "max": [
        0.9997270107269287,
        0.9995359778404236
      ],
      "min": [
        0.00025599999935366213,
        0.00025397539138793945
      ],
      "type": "VEC2"
    },
    {
      "bufferView": 0,
      "byteOffset": 3949224,
      "componentType": 5125,
      "count": 101115,
      "type": "SCALAR"
    },
    {
      "bufferView": 2,
      "byteOffset": 9437184,
      "componentType": 5126,
      "count": 65533,
      "max": [
        0.04312826693058014,
        0.9897384643554688,
        2.0337021350860596
      ],
      "min": [
        -2.667548656463623,
        -0.6400480270385742,
        -1.7084158658981323
      ],
      "type": "VEC3"
    },
    {
      "bufferView": 2,
      "byteOffset": 10223580,
      "componentType": 5126,
      "count": 65533,
      "max": [
        0.9999926090240479,
        0.9999843239784241,
        0.9999984502792358
      ],
      "min": [
        -0.9998549818992615,
        -0.9999899864196777,
        -0.9999642372131348
      ],
      "type": "VEC3"
    },
    {
      "bufferView": 1,
      "byteOffset": 3145728,
      "componentType": 5126,
      "count": 65533,
      "max": [
        0.9997069835662842,
        0.9995350241661072
      ],
      "min": [
        0.00025599999935366213,
        0.00027298927307128906
      ],
      "type": "VEC2"
    },
    {
      "bufferView": 0,
      "byteOffset": 4353684,
      "componentType": 5125,
      "count": 92631,
      "type": "SCALAR"
    },
    {
      "bufferView": 2,
      "byteOffset": 11009976,
      "componentType": 5126,
      "count": 65532,
      "max": [
        2.1746201515197754,
        0.9896125793457031,
        2.1511311531066895
      ],
      "min": [
        -2.6669607162475586,
        -1.7310047149658203,
        -1.7092748880386353
      ],
      "type": "VEC3"
    },
    {
      "bufferView": 2,
      "byteOffset": 11796360,
      "componentType": 5126,
      "count": 65532,
      "max": [
        0.9999831914901733,
        0.9999516606330872,
        0.9999663829803467
      ],
      "min": [
        -0.9999096393585205,
        -0.9998711943626404,
        -0.9998645186424255
      ],
      "type": "VEC3"
    },
    {
      "bufferView": 1,
      "byteOffset": 3669992,
      "componentType": 5126,
      "count": 65532,
      "max": [
        0.9997469782829285,
        0.9996190071105957
      ],
      "min": [
        0.0002530000056140125,
        0.0002620220184326172
      ],
      "type": "VEC2"
    },
    {
      "bufferView": 0,
      "byteOffset": 4724208,
      "componentType": 5125,
      "count": 99162,
      "type": "SCALAR"
    },
    {
      "bufferView": 2,
      "byteOffset": 12582744,
      "componentType": 5126,
      "count": 6671,
      "max": [
        2.7365822792053223,
        0.9311313629150391,
        2.1469552516937256
      ],
      "min": [
        0.003432266414165497,
        -1.730550765991211,
        -1.9139128923416138
      ],
      "type": "VEC3"
    },
    {
      "bufferView": 2,
      "byteOffset": 12662796,
      "componentType": 5126,
      "count": 6671,
      "max": [
        0.9991418123245239,
        0.9998349547386169,
        0.9997677803039551
      ],
      "min": [
        -0.997915506362915,
        -0.9998428225517273,
        -0.999658465385437
      ],
      "type": "VEC3"
    },
    {
      "bufferView": 1,
      "byteOffset": 4194248,
      "componentType": 5126,
      "count": 6671,
      "max": [
        0.9996920228004456,
        0.9996190071105957
      ],
      "min": [
        0.0003060000017285347,
        0.0002620220184326172
      ],
      "type": "VEC2"
    },
    {
      "bufferView": 0,
      "byteOffset": 5120856,
      "componentType": 5125,
      "count": 7302,
      "type": "SCALAR"
    }
  ],
  "asset": {
    "extras": {
      "author": "ffish.asia / floraZia.com (https://sketchfab.com/ffishAsia-and-floraZia)",
      "license": "CC-BY-4.0 (http://creativecommons.org/licenses/by/4.0/)",
      "source": "https://sketchfab.com/3d-models/jpn-crayfish-cambaroides-japonicus-7597928f3c9f450a9361c050bb3283f2",
      "title": "ニホンザリガニ ♂ Jpn crayfish, Cambaroides japonicus"
    },
    "generator": "Sketchfab-12.66.0",
    "version": "2.0"
  },
  "bufferViews": [
    {
      "buffer": 0,
      "byteLength": 5150064,
      "name": "floatBufferViews",
      "target": 34963
    },
    {
      "buffer": 0,
      "byteLength": 4247616,
      "byteOffset": 5150064,
      "byteStride": 8,
      "name": "floatBufferViews",
      "target": 34962
    },
    {
      "buffer": 0,
      "byteLength": 12742848,
      "byteOffset": 9397680,
      "byteStride": 12,
      "name": "floatBufferViews",
      "target": 34962
    }
  ],
  "buffers": [
    {
      "byteLength": 22140528,
      "uri": "scene.bin"
    }
  ],
  "extensionsUsed": [
    "KHR_materials_unlit"
  ],
  "images": [
    {
      "uri": "textures/Material.001_baseColor.jpeg"
    },
    {
      "uri": "textures/Q11444-1all-1_baseColor.jpeg"
    }
  ],
  "materials": [
    {
      "doubleSided": true,
      "extensions": {
        "KHR_materials_unlit": {}
      },
      "name": "Material.001",
      "pbrMetallicRoughness": {
        "baseColorTexture": {
          "index": 0
        },
        "metallicFactor": 0.0
      }
    },
    {
      "doubleSided": true,
      "extensions": {
        "KHR_materials_unlit": {}
      },
      "name": "Q11444-1all-1",
      "pbrMetallicRoughness": {
        "baseColorTexture": {
          "index": 1
        },
        "metallicFactor": 0.0
      }
    }
  ],
  "meshes": [
    {
      "name": "Object_0",
      "primitives": [
        {
          "attributes": {
            "NORMAL": 1,
            "POSITION": 0,
            "TEXCOORD_0": 2
          },
          "indices": 3,
          "material": 0,
          "mode": 4
        }
      ]
    },
    {
      "name": "Object_1",
      "primitives": [
        {
          "attributes": {
            "NORMAL": 5,
            "POSITION": 4,
            "TEXCOORD_0": 6
          },
          "indices": 7,
          "material": 1,
          "mode": 4
        }
      ]
    },
    {
      "name": "Object_2",
      "primitives": [
        {
          "attributes": {
            "NORMAL": 9,
            "POSITION": 8,
            "TEXCOORD_0": 10
          },
          "indices": 11,
          "material": 1,
          "mode": 4
        }
      ]
    },
    {
      "name": "Object_3",
      "primitives": [
        {
          "attributes": {
            "NORMAL": 13,
            "POSITION": 12,
            "TEXCOORD_0": 14
          },
          "indices": 15,
          "material": 1,
          "mode": 4
        }
      ]
    },
    {
      "name": "Object_4",
      "primitives": [
        {
          "attributes": {
            "NORMAL": 17,
            "POSITION": 16,
            "TEXCOORD_0": 18
          },
          "indices": 19,
          "material": 1,
          "mode": 4
        }
      ]
    },
    {
      "name": "Object_5",
      "primitives": [
        {
          "attributes": {
            "NORMAL": 21,
            "POSITION": 20,
            "TEXCOORD_0": 22
          },
          "indices": 23,
          "material": 1,
          "mode": 4
        }
      ]
    },
    {
      "name": "Object_6",
      "primitives": [
        {
          "attributes": {
            "NORMAL": 25,
            "POSITION": 24,
            "TEXCOORD_0": 26
          },
          "indices": 27,
          "material": 1,
          "mode": 4
        }
      ]
    },
    {
      "name": "Object_7",
      "primitives": [
        {
          "attributes": {
            "NORMAL": 29,
            "POSITION": 28,
            "TEXCOORD_0": 30
          },
          "indices": 31,
          "material": 1,
          "mode": 4
        }
      ]
    },
    {
      "name": "Object_8",
      "primitives": [
        {
          "attributes": {
            "NORMAL": 33,
            "POSITION": 32,
            "TEXCOORD_0": 34
          },
          "indices": 35,
          "material": 1,
          "mode": 4
        }
      ]
    },
    {
      "name": "Object_9",
      "primitives": [
        {
          "attributes": {
            "NORMAL": 37,
            "POSITION": 36,
            "TEXCOORD_0": 38
          },
          "indices": 39,
          "material": 1,
          "mode": 4
        }
      ]
    }
  ],
  "nodes": [
    {
      "children": [
        1
      ],
      "matrix": [
        1.0,
        0.0,
        0.0,
        0.0,
        0.0,
        2.220446049250313e-16,
        -1.0,
        0.0,
        0.0,
        1.0,
        2.220446049250313e-16,
        0.0,
        0.0,
        0.0,
        0.0,
        1.0
      ],
      "name": "Sketchfab_model"
    },
    {
      "children": [
        2
      ],
      "name": "root"
    },
    {
      "children": [
        3,
        5
      ],
      "matrix": [
        1.0,
        0.0,
        0.0,
        0.0,
        0.0,
        2.220446049250313e-16,
        1.0,
        0.0,
        0.0,
        -1.0,
        2.220446049250313e-16,
        0.0,
        0.0,
        0.0,
        0.0,
        1.0
      ],
      "name": "GLTF_SceneRootNode"
    },
    {
      "children": [
        4
      ],
      "matrix": [
        -0.0006035888575559562,
        -0.3258584645986015,
        0.001162267311776564,
        0.0,
        0.0015043841710861924,
        -0.0011650436731760732,
        -0.3258556006616271,
        0.0,
        0.32585712435002545,
        -0.0005982129052820491,
        0.0015065300184240946,
        0.0,
        4.04423713684082,
        -0.009604118764400482,
        -0.0008620098233222961,
        1.0
      ],
      "name": "Cube_2"
    },
    {
      "mesh": 0,
      "name": "Object_4"
    },
    {
      "children": [
        6,
        7,
        8,
        9,
        10,
        11,
        12,
        13,
        14
      ],
      "matrix": [
        -0.9538323960037352,
        0.14877561660635794,
        -0.26090146844579376,
        0.0,
        -0.14786546893407634,
        -0.9887346318286401,
        -0.023229957373810298,
        0.0,
        -0.26141836857933154,
        0.016420832076400313,
        0.9650858992044384,
        0.0,
        -0.018889490514993668,
        0.0031630273442715406,
        0.04388336464762688,
        1.0
      ],
      "name": "Q11444-1all-1_5"
    },
    {
      "mesh": 1,
      "name": "Object_6"
    },
    {
      "mesh": 2,
      "name": "Object_7"
    },
    {
      "mesh": 3,
      "name": "Object_8"
    },
    {
      "mesh": 4,
      "name": "Object_9"
    },
    {
      "mesh": 5,
      "name": "Object_10"
    },
    {
      "mesh": 6,
      "name": "Object_11"
    },
    {
      "mesh": 7,
      "name": "Object_12"
    },
    {
      "mesh": 8,
      "name": "Object_13"
    },
    {
      "mesh": 9,
      "name": "Object_14"
    }
  ],
  "samplers": [
    {
      "magFilter": 9729,
      "minFilter": 9987,
      "wrapS": 10497,
      "wrapT": 10497
    }
  ],
  "scene": 0,
  "scenes": [
    {
      "name": "Sketchfab_Scene",
      "nodes": [
        0
      ]
    }
  ],
  "textures": [
    {
      "sampler": 0,
      "source": 0
    },
    {
      "sampler": 0,
      "source": 1
    }
  ]
}
